<svg xmlns="http://www.w3.org/2000/svg" viewBox="0 0 420 200" role="img" aria-label="Carnivon">
  <defs>
    <linearGradient id="cvg2" x1="0" y1="0" x2="420" y2="200" gradientUnits="userSpaceOnUse">
      <stop offset="0" stop-color="#e9c671" />
      <stop offset="0.5" stop-color="#c89a3f" />
      <stop offset="1" stop-color="#8a6528" />
    </linearGradient>
    <linearGradient id="cvg-core2" x1="210" y1="10" x2="210" y2="140" gradientUnits="userSpaceOnUse">
      <stop offset="0" stop-color="#f4dc92" />
      <stop offset="0.6" stop-color="#c89a3f" />
      <stop offset="1" stop-color="#6b4a1c" />
    </linearGradient>
  </defs>

  <g transform="translate(150 10)">
    <!-- Horns -->
    <path d="M60 40 C 40 30, 18 34, 8 44 C 24 42, 38 48, 50 58 C 44 52, 40 46, 38 40 C 40 44, 46 48, 54 50 L 60 44 Z" fill="url(#cvg2)" />
    <path d="M60 40 C 80 30, 102 34, 112 44 C 96 42, 82 48, 70 58 C 76 52, 80 46, 82 40 C 80 44, 74 48, 66 50 L 60 44 Z" fill="url(#cvg2)" />
    <!-- Core -->
    <path d="M60 22 L 72 38 L 68 38 L 68 58 L 72 58 L 60 98 L 48 58 L 52 58 L 52 38 L 48 38 Z" fill="url(#cvg-core2)" />
    <path d="M60 26 L 66 36 L 54 36 Z" fill="#f4dc92" />
    <path d="M38 56 L 50 70 L 48 76 L 34 62 Z" fill="url(#cvg2)" />
    <path d="M82 56 L 70 70 L 72 76 L 86 62 Z" fill="url(#cvg2)" />
  </g>

  <!-- Wordmark -->
  <text x="210" y="175" text-anchor="middle"
        font-family="Cormorant Garamond, Georgia, serif"
        font-weight="600"
        font-size="42"
        letter-spacing="6"
        fill="url(#cvg2)">CARNIVON</text>
</svg>
